<svg width="55" height="51" viewBox="0 0 55 51" fill="none" xmlns="http://www.w3.org/2000/svg">
<path fill-rule="evenodd" clip-rule="evenodd" d="M3.04669 14.766C2.56409 14.766 2.17218 14.3744 2.17218 13.8915V4.54077C2.17218 3.38939 3.92087 3.38939 3.92087 4.54077V13.8915C3.92087 14.3744 3.52928 14.766 3.04637 14.766H3.04669Z" fill="#4A5254"/>
<path fill-rule="evenodd" clip-rule="evenodd" d="M12.4205 20.6818C12.0161 20.6818 11.7495 20.2361 11.7495 19.8317V5.9264C11.7495 4.84456 13.294 4.77919 13.4799 5.73092H43.3881C43.5743 4.77951 45.1185 4.84488 45.1185 5.9264V19.831C45.1185 20.2351 44.841 20.5876 44.4475 20.6809L12.4205 20.6815V20.6818Z" fill="#5A6163"/>
<path fill-rule="evenodd" clip-rule="evenodd" d="M28.4343 9.08987L2.92107 5.40566C1.93024 5.26178 1.93056 3.81784 2.92107 3.67524L28.5593 0L53.9459 3.67524C54.9377 3.81944 54.9374 5.26274 53.9459 5.40566L28.4343 9.08987Z" fill="#4A5254"/>
<path fill-rule="evenodd" clip-rule="evenodd" d="M3.04699 19.1905C-1.01566 19.1905 -1.01566 13.017 3.04699 13.017C7.10965 13.017 7.10965 19.1905 3.04699 19.1905Z" fill="#FFAD5A"/>
<path fill-rule="evenodd" clip-rule="evenodd" d="M28.4343 16.8339C26.8135 16.8339 25.1433 16.7512 22.8492 16.5579C22.3961 16.5198 22.048 16.1407 22.048 15.6866C22.048 9.28022 20.674 12.7417 33.872 11.6531C34.3815 11.6112 34.8205 12.0153 34.8205 12.5248V15.6866C34.8205 16.1414 34.4719 16.5198 34.0194 16.5579C31.7247 16.7518 30.0548 16.8339 28.4343 16.8339Z" fill="#4A5254"/>
<path fill-rule="evenodd" clip-rule="evenodd" d="M40.5733 50.6897H4.33842C4.04969 50.6897 3.81512 50.4548 3.81512 50.1664V35.4299C3.81512 35.1411 4.04937 34.9066 4.33842 34.9066H40.5726C44.9243 34.9066 48.4643 38.4466 48.4643 42.798C48.4643 47.1493 44.9243 50.69 40.5729 50.69L40.5733 50.6897Z" fill="#4F9DA6"/>
<path fill-rule="evenodd" clip-rule="evenodd" d="M47.9414 35.9529H11.7065C7.35545 35.9529 3.81512 32.4125 3.81512 28.0611C3.81512 23.7094 7.35513 20.1697 11.7065 20.1697H47.9414C48.2301 20.1697 48.4647 20.4043 48.4647 20.693V35.4296C48.4647 35.7183 48.2304 35.9529 47.9414 35.9529Z" fill="#FF5959"/>
<path fill-rule="evenodd" clip-rule="evenodd" d="M45.0663 33.0775H11.7065C8.9407 33.0775 6.69019 30.8273 6.69019 28.0611C6.69019 25.2953 8.94038 23.0448 11.7065 23.0448H45.0663C45.454 23.0448 45.7078 23.4553 45.5341 23.802C44.1011 26.6678 44.1011 29.4541 45.5341 32.3196C45.7075 32.6666 45.4537 33.0775 45.0663 33.0775Z" fill="#FFD08C"/>
<path fill-rule="evenodd" clip-rule="evenodd" d="M44.476 27.5385C44.4542 27.8875 44.4542 28.2361 44.476 28.5851H12.3529C11.6646 28.5851 11.6639 27.5385 12.3529 27.5385H44.476Z" fill="#FFA871"/>
<path fill-rule="evenodd" clip-rule="evenodd" d="M40.5732 47.814H26.2805C25.9918 47.814 25.7572 47.5794 25.7572 47.2907V43.3213H21.5244V47.2907C21.5244 47.5794 21.2902 47.814 21.0011 47.814H7.21378C6.82636 47.814 6.57256 47.4035 6.74561 47.0568C8.17834 44.1906 8.17834 41.4047 6.74561 38.5389C6.57224 38.1925 6.82636 37.7817 7.21378 37.7817H40.5729C43.3387 37.7817 45.5892 40.0319 45.5892 42.798C45.5889 45.5638 43.3387 47.814 40.5729 47.814H40.5732Z" fill="#FFD08C"/>
<path fill-rule="evenodd" clip-rule="evenodd" d="M25.7572 43.3216H7.80405C7.82584 42.9726 7.82584 42.624 7.80405 42.275H39.9269C40.6155 42.275 40.6158 43.3216 39.9269 43.3216H25.7569H25.7572Z" fill="#FFA871"/>
<path fill-rule="evenodd" clip-rule="evenodd" d="M26.2805 49.2518C26.0034 49.2518 24.03 48.0976 23.6423 47.8864L21.2514 49.1877C20.9044 49.3765 20.4778 49.1256 20.4778 48.7285V42.798C20.4778 42.5092 20.7121 42.2747 21.0011 42.2747H26.2802C26.569 42.2747 26.8035 42.5092 26.8035 42.798V48.7282C26.8035 49.0182 26.5667 49.2515 26.2805 49.2515V49.2518Z" fill="#FFA871"/>
<path fill-rule="evenodd" clip-rule="evenodd" d="M33.2359 34.5153C32.9587 34.5153 30.9854 33.3611 30.5976 33.1499L28.2068 34.4512C27.8597 34.64 27.4332 34.3891 27.4332 33.992V28.0615C27.4332 27.7727 27.6674 27.5382 27.9565 27.5382L33.2356 27.5385C33.5243 27.5385 33.7589 27.7731 33.7589 28.0618V33.992C33.7589 34.282 33.5224 34.5153 33.2362 34.5153H33.2359Z" fill="#FFA871"/>
</svg>
