<svg width="44" height="51" viewBox="0 0 44 51" fill="none" xmlns="http://www.w3.org/2000/svg">
<path d="M0 12.8535V36.6625C0 38.3564 1.36306 39.7296 3.0445 39.7296H30.6812C32.3627 39.7296 33.7257 38.3564 33.7257 36.6625V12.8535H0Z" fill="#FFF8E3"/>
<path d="M33.7257 6.12944C33.7257 4.43554 32.3627 3.06237 30.6812 3.06237H3.0445C1.36306 3.06237 0 4.43554 0 6.12944V10.8114H33.7257V6.12944Z" fill="#FFAD5A"/>
<path d="M33.7257 10.8114H0V12.8535H33.7257V10.8114Z" fill="#F7963E"/>
<path d="M5.77338 7.41729C6.65038 7.41729 7.36133 6.70107 7.36133 5.81757C7.36133 4.93407 6.65038 4.21785 5.77338 4.21785C4.89638 4.21785 4.18542 4.93407 4.18542 5.81757C4.18542 6.70107 4.89638 7.41729 5.77338 7.41729Z" fill="#F7963E"/>
<path d="M11.3182 7.41729C12.1952 7.41729 12.9061 6.70107 12.9061 5.81757C12.9061 4.93407 12.1952 4.21785 11.3182 4.21785C10.4412 4.21785 9.73022 4.93407 9.73022 5.81757C9.73022 6.70107 10.4412 7.41729 11.3182 7.41729Z" fill="#F7963E"/>
<path d="M16.8629 7.41729C17.7399 7.41729 18.4509 6.70107 18.4509 5.81757C18.4509 4.93407 17.7399 4.21785 16.8629 4.21785C15.9859 4.21785 15.275 4.93407 15.275 5.81757C15.275 6.70107 15.9859 7.41729 16.8629 7.41729Z" fill="#F7963E"/>
<path d="M22.4077 7.41729C23.2847 7.41729 23.9957 6.70107 23.9957 5.81757C23.9957 4.93407 23.2847 4.21785 22.4077 4.21785C21.5307 4.21785 20.8198 4.93407 20.8198 5.81757C20.8198 6.70107 21.5307 7.41729 22.4077 7.41729Z" fill="#F7963E"/>
<path d="M27.9525 7.41729C28.8295 7.41729 29.5404 6.70107 29.5404 5.81757C29.5404 4.93407 28.8295 4.21785 27.9525 4.21785C27.0755 4.21785 26.3645 4.93407 26.3645 5.81757C26.3645 6.70107 27.0755 7.41729 27.9525 7.41729Z" fill="#F7963E"/>
<path d="M5.75433 6.48681C5.35928 6.48681 5.03888 6.16403 5.03888 5.76605V0.720754C5.03888 0.322776 5.35928 -3.33786e-06 5.75433 -3.33786e-06C6.14939 -3.33786e-06 6.46979 0.322776 6.46979 0.720754V5.76605C6.46979 6.16403 6.14939 6.48681 5.75433 6.48681Z" fill="#E3E3E3"/>
<path d="M11.3587 6.48681C10.9637 6.48681 10.6432 6.16403 10.6432 5.76605V0.72075C10.6432 0.322772 10.9637 -6.67572e-06 11.3587 -6.67572e-06C11.7538 -6.67572e-06 12.0742 0.322772 12.0742 0.72075V5.76605C12.0742 6.16403 11.7538 6.48681 11.3587 6.48681Z" fill="#E3E3E3"/>
<path d="M16.8439 6.48681C16.4488 6.48681 16.1284 6.16403 16.1284 5.76605V0.72075C16.1284 0.322772 16.4488 -6.67572e-06 16.8439 -6.67572e-06C17.2389 -6.67572e-06 17.5593 0.322772 17.5593 0.72075V5.76605C17.5593 6.16403 17.2389 6.48681 16.8439 6.48681Z" fill="#E3E3E3"/>
<path d="M22.4482 6.48681C22.0532 6.48681 21.7328 6.16403 21.7328 5.76605V0.72075C21.7328 0.322772 22.0532 -6.67572e-06 22.4482 -6.67572e-06C22.8433 -6.67572e-06 23.1637 0.322772 23.1637 0.72075V5.76605C23.1637 6.16403 22.8433 6.48681 22.4482 6.48681Z" fill="#E3E3E3"/>
<path d="M27.9334 6.48681C27.5384 6.48681 27.218 6.16403 27.218 5.76605V0.72075C27.218 0.322772 27.5384 -6.67572e-06 27.9334 -6.67572e-06C28.3285 -6.67572e-06 28.6489 0.322772 28.6489 0.72075V5.76605C28.6489 6.16403 28.3285 6.48681 27.9334 6.48681Z" fill="#E3E3E3"/>
<path d="M7.90066 27.5024C7.90066 28.1448 7.38375 28.6656 6.74604 28.6656H3.45077C2.81306 28.6656 2.29614 28.1448 2.29614 27.5024V24.1827C2.29614 23.5403 2.81306 23.0195 3.45077 23.0195H6.74604C7.38375 23.0195 7.90066 23.5403 7.90066 24.1827V27.5024Z" fill="#808080"/>
<path d="M15.7707 27.5024C15.7707 28.1448 15.2538 28.6656 14.6161 28.6656H11.3208C10.6831 28.6656 10.1662 28.1448 10.1662 27.5024V24.1827C10.1662 23.5403 10.6831 23.0195 11.3208 23.0195H14.6161C15.2538 23.0195 15.7707 23.5403 15.7707 24.1827V27.5024Z" fill="#808080"/>
<path d="M23.5215 27.5024C23.5215 28.1448 23.0045 28.6656 22.3668 28.6656H19.0716C18.4338 28.6656 17.9169 28.1448 17.9169 27.5024V24.1827C17.9169 23.5403 18.4338 23.0195 19.0716 23.0195H22.3668C23.0045 23.0195 23.5215 23.5403 23.5215 24.1827V27.5024Z" fill="#808080"/>
<path d="M31.3914 27.5024C31.3914 28.1448 30.8745 28.6656 30.2368 28.6656H26.9416C26.3038 28.6656 25.7869 28.1448 25.7869 27.5024V24.1827C25.7869 23.5403 26.3038 23.0195 26.9416 23.0195H30.2368C30.8745 23.0195 31.3914 23.5403 31.3914 24.1827V27.5024Z" fill="#808080"/>
<path d="M15.7897 19.0936C15.7897 19.736 15.2728 20.2568 14.6351 20.2568H11.3398C10.7021 20.2568 10.1852 19.736 10.1852 19.0936V15.7739C10.1852 15.1314 10.7021 14.6107 11.3398 14.6107H14.6351C15.2728 14.6107 15.7897 15.1314 15.7897 15.7739V19.0936Z" fill="#808080"/>
<path d="M23.5405 19.0936C23.5405 19.736 23.0235 20.2568 22.3858 20.2568H19.0906C18.4529 20.2568 17.9359 19.736 17.9359 19.0936V15.7739C17.9359 15.1314 18.4529 14.6107 19.0906 14.6107H22.3858C23.0235 14.6107 23.5405 15.1314 23.5405 15.7739V19.0936Z" fill="#FF5959"/>
<path d="M31.4105 19.0936C31.4105 19.736 30.8935 20.2568 30.2558 20.2568H26.9606C26.3229 20.2568 25.8059 19.736 25.8059 19.0936V15.7739C25.8059 15.1314 26.3229 14.6107 26.9606 14.6107H30.2558C30.8935 14.6107 31.4105 15.1314 31.4105 15.7739V19.0936Z" fill="#808080"/>
<path d="M7.91971 35.9112C7.91971 36.5537 7.40279 37.0744 6.76508 37.0744H3.46981C2.8321 37.0744 2.31519 36.5537 2.31519 35.9112V32.5915C2.31519 31.9491 2.8321 31.4284 3.46981 31.4284H6.76508C7.40279 31.4284 7.91971 31.9491 7.91971 32.5915V35.9112Z" fill="#808080"/>
<path d="M15.7897 35.9112C15.7897 36.5537 15.2728 37.0744 14.635 37.0744H11.3398C10.7021 37.0744 10.1852 36.5537 10.1852 35.9112V32.5916C10.1852 31.9491 10.7021 31.4284 11.3398 31.4284H14.635C15.2728 31.4284 15.7897 31.9491 15.7897 32.5916V35.9112Z" fill="#4F9DA6"/>
<path d="M23.5405 35.9112C23.5405 36.5537 23.0235 37.0744 22.3858 37.0744H19.0906C18.4529 37.0744 17.9359 36.5537 17.9359 35.9112V32.5916C17.9359 31.9491 18.4529 31.4284 19.0906 31.4284H22.3858C23.0235 31.4284 23.5405 31.9491 23.5405 32.5916V35.9112Z" fill="#808080"/>
<path d="M31.4105 35.9112C31.4105 36.5537 30.8935 37.0744 30.2558 37.0744H26.9606C26.3229 37.0744 25.8059 36.5537 25.8059 35.9112V32.5916C25.8059 31.9491 26.3229 31.4284 26.9606 31.4284H30.2558C30.8935 31.4284 31.4105 31.9491 31.4105 32.5916V35.9112Z" fill="#808080"/>
<path d="M31.953 50.69C38.4412 50.69 43.701 45.3913 43.701 38.8549C43.701 32.3186 38.4412 27.0199 31.953 27.0199C25.4647 27.0199 20.205 32.3186 20.205 38.8549C20.205 45.3913 25.4647 50.69 31.953 50.69Z" fill="#FF5959"/>
<path d="M31.953 48.1724C37.061 48.1724 41.2019 44.0008 41.2019 38.8549C41.2019 33.709 37.061 29.5375 31.953 29.5375C26.8449 29.5375 22.704 33.709 22.704 38.8549C22.704 44.0008 26.8449 48.1724 31.953 48.1724Z" fill="white"/>
<path d="M31.953 40.6168C32.9189 40.6168 33.7019 39.828 33.7019 38.8549C33.7019 37.8819 32.9189 37.093 31.953 37.093C30.9871 37.093 30.204 37.8819 30.204 38.8549C30.204 39.828 30.9871 40.6168 31.953 40.6168Z" fill="#FF5959"/>
<path d="M31.9877 39.2366C31.7901 39.2366 31.6299 39.0752 31.6299 38.8762V31.3082C31.6299 31.1092 31.7901 30.9479 31.9877 30.9479C32.1853 30.9479 32.3454 31.1092 32.3454 31.3082V38.8762C32.3454 39.0753 32.1853 39.2366 31.9877 39.2366Z" fill="#FF5959"/>
<path d="M35.8219 42.6401C35.6466 42.6401 35.47 42.5848 35.3194 42.4702L31.45 39.526C31.0821 39.2461 31.0091 38.7187 31.287 38.3481C31.5647 37.9773 32.0884 37.9039 32.4561 38.1839L36.3256 41.1282C36.6934 41.4081 36.7664 41.9354 36.4886 42.306C36.3245 42.5249 36.0746 42.6401 35.8219 42.6401Z" fill="#FF5959"/>
</svg>
