<svg width="55" height="51" viewBox="0 0 55 51" fill="none" xmlns="http://www.w3.org/2000/svg">
<path fill-rule="evenodd" clip-rule="evenodd" d="M25.7954 16.6565C25.6697 16.6565 25.544 16.6251 25.4183 16.5623C25.0726 16.3737 24.9783 15.9338 25.1669 15.5881L33.9659 0.346874C34.1545 0.00119749 34.5944 -0.093078 34.9401 0.095473C35.2858 0.284024 35.4115 0.723976 35.2229 1.06965L26.4239 16.3109C26.2982 16.5308 26.0468 16.6565 25.7954 16.6565Z" fill="#9E7256"/>
<path fill-rule="evenodd" clip-rule="evenodd" d="M25.7954 16.6565C25.6697 16.6251 25.5755 16.5308 25.4812 16.4366C25.2298 16.1223 25.2926 15.6824 25.6069 15.431L39.3711 4.49499C39.6854 4.24359 40.1567 4.30644 40.4081 4.62069C40.6281 4.93494 40.5967 5.3749 40.2824 5.6263L26.5182 16.5623C26.2982 16.7194 26.0154 16.7508 25.7954 16.6565Z" fill="#9E7256"/>
<path fill-rule="evenodd" clip-rule="evenodd" d="M16.6193 8.70597C16.2736 8.70597 15.9593 8.42314 15.8965 8.04604C15.6765 6.1291 16.2736 2.04383 20.1389 0.503997C20.516 0.378296 20.9245 0.535422 21.0817 0.912524C21.2074 1.28963 21.0502 1.69815 20.6731 1.85528C16.8707 3.36369 17.3421 7.85749 17.3421 7.88891C17.3735 8.29744 17.0907 8.64312 16.7136 8.70597C16.6821 8.70597 16.6507 8.70597 16.6193 8.70597Z" fill="#4FBA6F"/>
<path fill-rule="evenodd" clip-rule="evenodd" d="M47.0074 20.3961C46.9445 20.3961 46.8817 20.3961 46.8503 20.3647C46.4417 20.2704 46.0332 20.2076 45.6247 20.2076C45.279 20.1762 44.9962 19.9248 44.9333 19.5791C44.6191 17.5365 42.5136 15.9966 40.031 15.9966C39.7482 15.9966 39.4339 15.9966 39.1511 16.0595C38.774 16.1223 38.4283 15.8709 38.334 15.5252C38.2083 14.9596 37.9255 14.4254 37.517 13.954C37.3599 13.7969 37.297 13.5455 37.3599 13.2941C38.1455 10.4972 40.6909 8.54885 43.6135 8.54885C47.1959 8.54885 50.0871 11.44 50.0871 15.0224C50.0871 17.0651 49.1129 19.0449 47.4474 20.239C47.3216 20.3333 47.1645 20.3961 47.0074 20.3961Z" fill="#FFC107"/>
<path fill-rule="evenodd" clip-rule="evenodd" d="M7.78879 20.3333C7.47454 20.3333 7.19171 20.1447 7.09744 19.8305C6.84604 18.9506 6.72034 18.0392 6.72034 17.1279C6.72034 11.6914 11.1827 7.26041 16.6193 7.26041C19.9189 7.26041 22.9986 8.89452 24.8527 11.6285C25.0098 11.8485 25.0098 12.1627 24.8841 12.3827C24.7584 12.6341 24.507 12.7598 24.2556 12.7598H24.2242C22.1815 12.7598 20.3274 13.8283 19.6047 15.431C19.5104 15.6195 19.3533 15.7452 19.1333 15.8081C18.9447 15.8709 18.7248 15.8395 18.5362 15.7138C17.6563 15.1167 16.5878 14.8024 15.4565 14.8024C12.7225 14.8024 10.4914 16.6565 10.4914 18.9191C10.4914 19.0763 10.5228 19.2334 10.5228 19.3905C10.5542 19.6105 10.4914 19.8305 10.3342 20.019C10.1771 20.1762 9.95713 20.239 9.73715 20.239C9.14008 20.1762 8.543 20.2076 7.94592 20.3333C7.88307 20.3333 7.85164 20.3333 7.78879 20.3333Z" fill="#EF5350"/>
<path fill-rule="evenodd" clip-rule="evenodd" d="M45.4362 29.8551H9.20294C5.68332 29.8551 2.79221 27.3725 2.79221 24.3243C2.79221 21.276 5.58905 18.8249 9.04581 18.762C9.14009 15.7766 11.9684 13.3569 15.4565 13.3569C16.5879 13.3569 17.6877 13.6083 18.6933 14.1111C19.7932 12.3827 21.8987 11.3143 24.2242 11.3143C25.8583 11.3143 27.4295 11.8485 28.5923 12.8227C29.7864 11.5657 31.5777 10.8115 33.4946 10.8115C36.2914 10.8115 38.6798 12.3199 39.5597 14.5511C39.7168 14.5511 39.8739 14.5511 40.031 14.5511C43.0164 14.5511 45.5619 16.3423 46.2532 18.7935C49.4272 19.1391 51.8155 21.4646 51.8155 24.3243C51.8155 27.3725 48.9558 29.8551 45.4362 29.8551Z" fill="#F5F5F5"/>
<path fill-rule="evenodd" clip-rule="evenodd" d="M44.3677 24.5128C43.9592 24.5128 43.6449 24.1986 43.6449 23.7901C43.6449 21.0246 41.3823 18.762 38.6169 18.762C38.2084 18.762 37.8941 18.4478 37.8941 18.0392C37.8941 17.6307 38.2084 17.3165 38.6169 17.3165C42.1994 17.3165 45.0905 20.2076 45.0905 23.7901C45.0905 24.1986 44.7762 24.5128 44.3677 24.5128Z" fill="#DDDDDD"/>
<path fill-rule="evenodd" clip-rule="evenodd" d="M11.9684 23.9472C11.937 23.9472 11.8741 23.9472 11.8113 23.9472C11.4341 23.8529 11.1827 23.4758 11.277 23.0673C12.0627 19.5791 15.5508 17.4107 19.039 18.1964C19.4161 18.2907 19.6675 18.6678 19.5733 19.0449C19.479 19.4534 19.1019 19.6734 18.7248 19.6105C15.9908 18.982 13.2882 20.679 12.6912 23.3815C12.5969 23.7272 12.3141 23.9472 11.9684 23.9472Z" fill="#DDDDDD"/>
<path fill-rule="evenodd" clip-rule="evenodd" d="M28.5923 22.1874C28.3723 22.1874 28.1209 22.0617 27.9952 21.8103C27.7752 21.4646 27.9009 21.0246 28.2466 20.8361L30.9178 19.2963C31.2634 19.1077 31.7034 19.202 31.8919 19.5477C32.0805 19.8933 31.9862 20.3333 31.6405 20.5533L28.9694 22.0931C28.8437 22.1559 28.718 22.1874 28.5923 22.1874Z" fill="#DDDDDD"/>
<path fill-rule="evenodd" clip-rule="evenodd" d="M34.5945 25.927C34.3431 25.927 34.1231 25.8013 33.966 25.5813C33.7774 25.2042 33.9032 24.7642 34.2488 24.5757L36.92 23.0358C37.2656 22.8473 37.7056 22.973 37.8941 23.3187C38.0827 23.6644 37.9884 24.1043 37.6427 24.2929L34.9716 25.8327C34.8459 25.8955 34.7202 25.927 34.5945 25.927Z" fill="#DDDDDD"/>
<path fill-rule="evenodd" clip-rule="evenodd" d="M19.7304 25.3613C19.479 25.3613 19.2276 25.2356 19.1019 24.9842C18.8819 24.6385 19.0076 24.1986 19.3533 24.01L22.0244 22.4702C22.3701 22.2502 22.81 22.3759 22.9986 22.7216C23.2186 23.0673 23.0929 23.5072 22.7472 23.7272L20.076 25.267C19.9503 25.3299 19.8561 25.3613 19.7304 25.3613Z" fill="#DDDDDD"/>
<path fill-rule="evenodd" clip-rule="evenodd" d="M35.0659 50.69H19.5732C19.5104 50.69 19.4475 50.6586 19.3533 50.6586C8.07164 47.139 0.498169 36.8629 0.498169 25.0471C0.498169 24.6385 0.812421 24.3243 1.22095 24.3243H53.4182C53.7953 24.3243 54.1409 24.6385 54.1409 25.0471C54.1409 36.8629 46.536 47.139 35.2544 50.6586C35.1916 50.6586 35.1287 50.69 35.0659 50.69Z" fill="#FFAD5A"/>
<path fill-rule="evenodd" clip-rule="evenodd" d="M3.29499 32.7462C3.20071 32.4948 3.35784 32.1806 3.64066 32.0863C3.89206 32.0235 4.20632 32.1492 4.30059 32.432C5.1805 35.2602 6.5632 37.8371 8.38586 40.0997C10.1771 42.3623 12.4083 44.3107 14.9537 45.8191C15.2051 45.9762 15.2994 46.2905 15.1423 46.5419C14.9852 46.7933 14.6709 46.8876 14.4195 46.7304C11.7484 45.1592 9.45432 43.148 7.56881 40.7597C5.6833 38.4028 4.20632 35.7002 3.29499 32.7462Z" fill="#F7963E"/>
<path fill-rule="evenodd" clip-rule="evenodd" d="M46.2218 50.69H8.4173C8.00877 50.69 7.69452 50.3443 7.69452 49.9672C7.69452 49.5587 8.00877 49.2445 8.4173 49.2445H46.2218C46.6303 49.2445 46.9446 49.5587 46.9446 49.9672C46.9446 50.3443 46.6303 50.69 46.2218 50.69Z" fill="#F7963E"/>
<path fill-rule="evenodd" clip-rule="evenodd" d="M19.0704 24.3243H2.79221H1.22095C0.812421 24.3243 0.498169 24.6385 0.498169 25.0471C0.498169 25.7698 0.529594 26.4926 0.592444 27.2468H3.76639H50.8727H54.0467C54.1095 26.4926 54.1409 25.7698 54.1409 25.0471C54.1409 24.6385 53.7953 24.3243 53.4182 24.3243H51.8155H44.8705H43.8649H37.6113H34.7202H21.7102H19.0704Z" fill="#F7963E"/>
</svg>
