<svg width="43" height="51" viewBox="0 0 43 51" fill="none" xmlns="http://www.w3.org/2000/svg">
<path d="M42.2949 21.406C42.2939 22.2171 42.0345 22.9946 41.5735 23.5681C41.1126 24.1416 40.4877 24.4643 39.8359 24.4656H26.4731L21.9111 20.8116C21.6421 20.5939 21.328 20.4785 21.0071 20.4794C20.6441 20.4786 20.2907 20.624 19.9997 20.894C19.7088 21.164 19.4959 21.544 19.3931 21.9771C19.2902 22.4102 19.3029 22.8731 19.4292 23.2965C19.5556 23.7199 19.7887 24.081 20.0938 24.3257L20.2671 24.4656H2.59991C1.94775 24.4656 1.3223 24.1432 0.861148 23.5695C0.4 22.9957 0.14093 22.2175 0.14093 21.406C0.14093 20.5946 0.4 19.8164 0.861148 19.2426C1.3223 18.6689 1.94775 18.3465 2.59991 18.3465H39.8359C40.1588 18.3465 40.4786 18.4255 40.777 18.5793C41.0753 18.733 41.3464 18.9584 41.5748 19.2425C41.8031 19.5266 41.9842 19.8639 42.1078 20.2351C42.2314 20.6064 42.2949 21.0042 42.2949 21.406Z" fill="#F7963E"/>
<path d="M38.2902 38.9007L37.5362 45.9463C37.3942 47.2599 36.8739 48.4647 36.0719 49.3371C35.27 50.2096 34.2408 50.6903 33.1756 50.69H9.26024C8.19498 50.6903 7.16584 50.2096 6.36388 49.3371C5.56193 48.4647 5.04165 47.2599 4.89965 45.9463L2.59991 24.4656H20.2671L29.9484 32.2222L33.0351 34.6931L38.2902 38.9007Z" fill="#FFAD5A"/>
<path d="M39.8359 24.4656L38.782 34.326L26.4731 24.4656H39.8359Z" fill="#FFAD5A"/>
<path d="M42.1638 39.5184C42.0449 39.7494 41.8906 39.949 41.7097 40.1057C41.5288 40.2624 41.3248 40.3731 41.1095 40.4316C40.8941 40.4901 40.6716 40.4951 40.4547 40.4464C40.2377 40.3977 40.0307 40.2962 39.8453 40.1478L38.2903 38.9007L33.0351 34.6931L29.9485 32.2222L20.2671 24.4656L20.0938 24.3257C19.7888 24.081 19.5556 23.7199 19.4293 23.2965C19.303 22.8731 19.2903 22.4102 19.3931 21.9771C19.496 21.544 19.7088 21.164 19.9998 20.894C20.2908 20.624 20.6442 20.4786 21.0072 20.4795C21.328 20.4785 21.6422 20.5939 21.9111 20.8116L26.4731 24.4656L38.7821 34.326L41.6626 36.6337C42.0361 36.934 42.2986 37.4063 42.3926 37.9471C42.4865 38.4879 42.4042 39.053 42.1638 39.5184Z" fill="#F9D16E"/>
<path d="M18.5903 18.3465H7.00269L5.11981 6.80195L16.2531 3.99302L17.6161 12.3615L18.5903 18.3465Z" fill="#4F9DA6"/>
<path d="M28.2342 7.22736L27.7471 9.07473L25.2975 18.3465H18.5903L17.6161 12.3615L19.8737 3.81235C20.0501 3.12354 20.3344 2.48503 20.7102 1.93366C21.086 1.3823 21.5459 0.929007 22.0632 0.599954C22.5806 0.270901 23.1452 0.072603 23.7245 0.0165064C24.3038 -0.0395903 24.8862 0.0476251 25.4383 0.273119C25.9903 0.498613 26.501 0.857919 26.9409 1.3303C27.3807 1.80268 27.741 2.37877 28.001 3.02533C28.2609 3.67188 28.4153 4.3761 28.4554 5.09732C28.4954 5.81854 28.4202 6.54248 28.2342 7.22736Z" fill="#F9D16E"/>
<path d="M37.3769 14.3021V17.4899C37.3757 17.777 37.3553 18.0635 37.316 18.3465H25.2975L27.7471 9.07472H33.1756C34.2897 9.07549 35.3579 9.62649 36.1457 10.6066C36.9335 11.5868 37.3763 12.916 37.3769 14.3021Z" fill="#FF5959"/>
<path d="M25.1208 10.0946C25.0236 10.0946 24.9271 10.0729 24.8361 10.0305L20.9331 8.23029C20.8321 8.18376 20.7396 8.11295 20.6606 8.0219C20.5817 7.93085 20.5179 7.82135 20.473 7.69965C20.4281 7.57795 20.4029 7.44642 20.3988 7.31259C20.3947 7.17876 20.4119 7.04524 20.4493 6.91965C20.4866 6.79407 20.5436 6.67888 20.6167 6.58066C20.6899 6.48244 20.7779 6.40311 20.8757 6.34721C20.9736 6.29131 21.0793 6.25993 21.1868 6.25486C21.2944 6.24979 21.4017 6.27113 21.5026 6.31766L25.4056 8.1184C25.5859 8.20152 25.737 8.36089 25.8325 8.56861C25.9279 8.77633 25.9616 9.01919 25.9277 9.2547C25.8937 9.49021 25.7943 9.70338 25.6468 9.85691C25.4993 10.0104 25.3131 10.0946 25.1208 10.0946Z" fill="#FFF8E3"/>
<path d="M23.7551 15.3354C23.6669 15.3356 23.5792 15.3179 23.4956 15.2829L19.6315 13.6803C19.5281 13.6393 19.4322 13.5731 19.3495 13.4856C19.2668 13.3982 19.1989 13.2911 19.1497 13.1707C19.1006 13.0503 19.0711 12.9189 19.063 12.7842C19.055 12.6495 19.0685 12.5142 19.1029 12.3861C19.1372 12.2579 19.1917 12.1396 19.2631 12.0378C19.3345 11.9361 19.4214 11.853 19.5188 11.7934C19.6162 11.7338 19.7222 11.6989 19.8305 11.6907C19.9389 11.6825 20.0475 11.7011 20.15 11.7455L24.0146 13.3481C24.1992 13.4248 24.3558 13.5807 24.4565 13.7879C24.5572 13.9951 24.5954 14.2401 24.5642 14.4791C24.5329 14.7181 24.4344 14.9355 24.2862 15.0923C24.138 15.2492 23.9497 15.3354 23.7551 15.3354Z" fill="#FFF8E3"/>
<path d="M22.8924 32.1825C22.8924 31.0319 22.1427 30.0992 21.2179 30.0992C20.2931 30.0992 19.5435 31.0319 19.5435 32.1825V43.3617C19.5435 44.5124 20.2931 45.4451 21.2179 45.4451C22.1427 45.4451 22.8924 44.5124 22.8924 43.3617V32.1825Z" fill="#F7963E"/>
<path d="M12.3656 45.3711C11.9381 45.4528 11.5017 45.3244 11.149 45.0128C10.7963 44.7013 10.5548 44.2312 10.4757 43.7021L9.12305 32.3842C9.09836 32.122 9.11583 31.8564 9.17444 31.6027C9.23305 31.349 9.33164 31.1124 9.46445 30.9066C9.59726 30.7008 9.76166 30.5299 9.94806 30.4039C10.1345 30.2779 10.3391 30.1992 10.5502 30.1726C10.9778 30.0909 11.4142 30.2194 11.767 30.5311C12.1197 30.8427 12.3611 31.313 12.4401 31.8422L13.7909 43.1601C13.8157 43.4221 13.7983 43.6875 13.7398 43.9411C13.6813 44.1946 13.5829 44.4311 13.4503 44.6369C13.3177 44.8426 13.1535 45.0135 12.9672 45.1396C12.781 45.2656 12.5765 45.3443 12.3656 45.3711Z" fill="#F7963E"/>
<path d="M33.035 34.6931L31.9624 43.7026C31.8833 44.2322 31.6414 44.7024 31.2881 45.0136C30.9348 45.3248 30.4979 45.4524 30.0702 45.3694C29.8595 45.3427 29.6551 45.2642 29.4691 45.1383C29.283 45.0124 29.1189 44.8417 28.9864 44.6361C28.8539 44.4306 28.7555 44.1943 28.6972 43.9409C28.6388 43.6876 28.6215 43.4224 28.6463 43.1607L29.9484 32.2222L33.035 34.6931Z" fill="#F7963E"/>
</svg>
