<svg width="52" height="48" viewBox="0 0 52 48" fill="none" xmlns="http://www.w3.org/2000/svg">
<path d="M5.57172 12.2817C4.2743 12.2817 3.22363 13.3324 3.22363 14.6298V46.5399H15.4894V12.2817H5.57172Z" fill="#F9D16E"/>
<path d="M46.0861 12.2817H36.1366V46.5399H48.4342V14.6298C48.4342 13.3324 47.3835 12.2817 46.0861 12.2817Z" fill="#FF5959"/>
<path d="M36.1366 46.5398H15.4894V2.38788C15.4894 1.06659 16.556 0 17.8773 0H33.7487C35.07 0 36.1366 1.06659 36.1366 2.38788V46.5398Z" fill="#E6E9ED"/>
<path d="M19.3499 4.50513H32.2683V9.21721H19.3499V4.50513ZM19.3499 13.7223H32.2683V18.4344H19.3499V13.7223ZM19.3499 22.9396H32.2683V27.6517H19.3499V22.9396Z" fill="#81A0D3"/>
<path d="M30.8832 46.5399H20.7427V36.9565C20.7427 34.1547 23.0112 31.8862 25.8129 31.8862C28.6147 31.8862 30.8832 34.1547 30.8832 36.9565V46.5399Z" fill="white"/>
<path d="M30.8832 46.5399H20.7427V36.9565C20.7427 34.1547 23.0112 31.8862 25.8129 31.8862C28.6147 31.8862 30.8832 34.1547 30.8832 36.9565V46.5399Z" fill="#544D80"/>
<path d="M39.5274 16.3569H45.0275V21.857H39.5274V16.3569ZM39.5274 26.6646H45.0275V32.1647H39.5274V26.6646ZM39.5274 36.9723H45.0275V42.4724H39.5274V36.9723ZM6.63037 16.3569H12.1305V21.857H6.63037V16.3569ZM6.63037 26.6646H12.1305V32.1647H6.63037V26.6646ZM6.63037 36.9723H12.1305V42.4724H6.63037V36.9723Z" fill="white"/>
<path d="M50.8778 47.3277H0.780041C0.350222 47.3277 0 46.9774 0 46.5476C0 46.1178 0.350222 45.7676 0.780041 45.7676H50.8698C51.2996 45.7676 51.6499 46.1178 51.6499 46.5476C51.6578 46.9774 51.3076 47.3277 50.8778 47.3277Z" fill="#2D1F5E"/>
</svg>
