<svg width="52" height="51" viewBox="0 0 52 51" fill="none" xmlns="http://www.w3.org/2000/svg">
<path d="M48.801 20.6898H37.1999V49.7191H48.801V20.6898Z" fill="#F9D16E"/>
<path d="M37.1999 10.3123H15.3086V49.7191H37.1999V10.3123Z" fill="#FF5959"/>
<path d="M26.2545 37.2893H19.6458V49.7191H26.2545V37.2893Z" fill="#FFF8E3"/>
<path d="M32.8633 37.2893H26.2545V49.7191H32.8633V37.2893Z" fill="#FFF8E3"/>
<path d="M44.7599 33.4449H41.2409V36.9639H44.7599V33.4449Z" fill="#FFF8E3"/>
<path d="M44.7599 25.2081H41.2409V28.7271H44.7599V25.2081Z" fill="#FFF8E3"/>
<path d="M44.7599 41.6817H41.2409V45.2007H44.7599V41.6817Z" fill="#FFF8E3"/>
<path d="M37.1999 16.6575H49.9943C50.0187 16.6575 50.0422 16.6673 50.0595 16.6846C50.0768 16.7019 50.0865 16.7253 50.0865 16.7498V20.6903H37.1999V16.6575Z" fill="#E84949"/>
<path d="M3.70748 49.7191H15.3086L15.3086 20.6898H3.70748L3.70748 49.7191Z" fill="#F9D16E"/>
<path d="M7.74851 36.9639H11.2675V33.4449H7.74851V36.9639Z" fill="#FFF8E3"/>
<path d="M7.74851 28.7271H11.2675V25.2081H7.74851V28.7271Z" fill="#FFF8E3"/>
<path d="M7.74851 45.2007H11.2675V41.6817H7.74851V45.2007Z" fill="#FFF8E3"/>
<path d="M15.3086 20.6898H2.42251V16.7493C2.42251 16.7248 2.43224 16.7013 2.44954 16.684C2.46684 16.6667 2.4903 16.657 2.51477 16.657H15.3086V20.6898Z" fill="#E84949"/>
<path d="M23.61 21.8731H20.091V25.3921H23.61V21.8731Z" fill="#FFF8E3"/>
<path d="M32.418 21.8731H28.899V25.3921H32.418V21.8731Z" fill="#FFF8E3"/>
<path d="M23.61 14.7959H20.091V18.3149H23.61V14.7959Z" fill="#FFF8E3"/>
<path d="M32.418 14.7959H28.899V18.3149H32.418V14.7959Z" fill="#FFF8E3"/>
<path d="M23.61 28.9503H20.091V32.4693H23.61V28.9503Z" fill="#FFF8E3"/>
<path d="M32.418 28.9503H28.899V32.4693H32.418V28.9503Z" fill="#FFF8E3"/>
<path d="M36.9899 0H15.519C14.6541 0 13.9529 0.701189 13.9529 1.56615V5.89171C13.9529 6.75667 14.6541 7.45786 15.519 7.45786H36.9899C37.8549 7.45786 38.5561 6.75667 38.5561 5.89171V1.56615C38.5561 0.701189 37.8549 0 36.9899 0Z" fill="#4F9DA6"/>
<path d="M19.6518 1.82856V5.62931H18.7061V4.11343H17.151V5.62931H16.2052V1.82856H17.151V3.26489H18.7061V1.82856H19.6518Z" fill="#FFF8E3"/>
<path d="M20.6087 3.72617C20.5938 3.31905 20.7009 2.91678 20.9163 2.57099C21.1317 2.22519 21.4455 1.95163 21.8174 1.78543C22.1893 1.61922 22.6025 1.56795 23.0037 1.6382C23.405 1.70844 23.7762 1.89699 24.0695 2.17966C24.3629 2.46232 24.5651 2.8262 24.6502 3.22459C24.7353 3.62299 24.6994 4.03773 24.5472 4.41559C24.3949 4.79345 24.1332 5.11718 23.7956 5.34525C23.4581 5.57332 23.0601 5.69532 22.6527 5.69559C22.1221 5.69987 21.6109 5.49608 21.2288 5.12792C20.8467 4.75976 20.6241 4.25655 20.6087 3.72617ZM23.7233 3.72617C23.7158 3.51553 23.6465 3.31174 23.524 3.14021C23.4015 2.96867 23.2313 2.83698 23.0345 2.76152C22.8377 2.68607 22.623 2.6702 22.4172 2.71589C22.2115 2.76157 22.0237 2.8668 21.8773 3.01845C21.7309 3.17011 21.6324 3.36148 21.5941 3.56874C21.5557 3.77599 21.5791 3.98995 21.6615 4.18397C21.7439 4.37798 21.8815 4.54347 22.0573 4.65981C22.233 4.77615 22.4391 4.83819 22.6499 4.83822C22.9382 4.82928 23.2116 4.70796 23.4116 4.50017C23.6117 4.29238 23.7225 4.0146 23.7205 3.72617H23.7233Z" fill="#FFF8E3"/>
<path d="M26.5893 2.67489H25.4336V1.82856H28.6863V2.67489H27.5356V5.62931H26.5893V2.67489Z" fill="#FFF8E3"/>
<path d="M30.5254 2.67489V3.2671H32.3848V4.11343H30.5254V4.78298H32.5727V5.62931H29.5796V1.82856H32.5727V2.67489H30.5254Z" fill="#FFF8E3"/>
<path d="M36.3039 4.78298V5.62931H33.5317V1.82856H34.4709V4.78298H36.3039Z" fill="#FFF8E3"/>
<path d="M19.6485 11.1409C19.4287 11.1409 19.2179 11.0536 19.0625 10.8982C18.9071 10.7428 18.8198 10.5321 18.8198 10.3123V7.45785C18.8198 7.23808 18.9071 7.02731 19.0625 6.87191C19.2179 6.71651 19.4287 6.6292 19.6485 6.6292C19.8682 6.6292 20.079 6.71651 20.2344 6.87191C20.3898 7.02731 20.4771 7.23808 20.4771 7.45785V10.3123C20.4771 10.5321 20.3898 10.7428 20.2344 10.8982C20.079 11.0536 19.8682 11.1409 19.6485 11.1409Z" fill="#4F9DA6"/>
<path d="M32.8599 11.1409C32.6401 11.1409 32.4294 11.0536 32.274 10.8982C32.1186 10.7428 32.0312 10.5321 32.0312 10.3123V7.45785C32.0312 7.23808 32.1186 7.02731 32.274 6.87191C32.4294 6.71651 32.6401 6.6292 32.8599 6.6292C33.0797 6.6292 33.2904 6.71651 33.4458 6.87191C33.6012 7.02731 33.6886 7.23808 33.6886 7.45785V10.3123C33.6886 10.5321 33.6012 10.7428 33.4458 10.8982C33.2904 11.0536 33.0797 11.1409 32.8599 11.1409Z" fill="#4F9DA6"/>
<path d="M50.8268 50.6858H1.10769C0.851289 50.6858 0.60539 50.584 0.424088 50.4027C0.242785 50.2214 0.14093 49.9755 0.14093 49.7191C0.14093 49.4627 0.242785 49.2168 0.424088 49.0355C0.60539 48.8542 0.851289 48.7523 1.10769 48.7523H50.8268C51.0832 48.7523 51.3291 48.8542 51.5104 49.0355C51.6917 49.2168 51.7935 49.4627 51.7935 49.7191C51.7935 49.9755 51.6917 50.2214 51.5104 50.4027C51.3291 50.584 51.0832 50.6858 50.8268 50.6858Z" fill="#2D1F5E"/>
</svg>
