<svg width="51" height="51" viewBox="0 0 51 51" fill="none" xmlns="http://www.w3.org/2000/svg">
<g clip-path="url(#clip0_319_4120)">
<path d="M9.44852 38.3707L25.3406 50.69L41.289 38.4135V0H9.401L9.44852 38.3707ZM29.6612 40.5108C28.508 41.664 26.9754 42.2984 25.3454 42.2984C23.7154 42.2984 22.182 41.6632 21.0296 40.5108C18.6495 38.1308 18.6495 34.2585 21.0296 31.8785C22.1828 30.7253 23.7154 30.0909 25.3454 30.0909C26.9762 30.0909 28.5088 30.7261 29.6612 31.8785C32.0412 34.2585 32.0412 38.1308 29.6612 40.5108ZM14.691 8.32662H36.9201V9.3824H14.691V8.32662ZM14.691 11.4947H36.9201V12.5505H14.691V11.4947ZM14.691 14.6629H36.9201V15.7187H14.691V14.6629ZM14.691 17.831H36.9201V18.8868H14.691V17.831ZM14.691 20.9991H36.9201V22.0549H14.691V20.9991Z" fill="#FF5959"/>
<path d="M28.2609 33.2788C27.4554 32.4733 26.4004 32.0709 25.3446 32.0709C24.2896 32.0709 23.2338 32.4733 22.4284 33.2788C20.8182 34.889 20.8182 37.5003 22.4284 39.1105C23.2338 39.916 24.2888 40.3183 25.3446 40.3183C26.4004 40.3183 27.4554 39.916 28.2609 39.1105C29.8711 37.5003 29.8711 34.889 28.2609 33.2788Z" fill="white"/>
<path d="M25.3446 30.0909C23.7146 30.0909 22.1812 30.7261 21.0288 31.8785C18.6488 34.2585 18.6488 38.1308 21.0288 40.5108C22.182 41.664 23.7146 42.2984 25.3446 42.2984C26.9754 42.2984 28.508 41.6632 29.6604 40.5108C32.0404 38.1308 32.0404 34.2585 29.6604 31.8785C28.508 30.7253 26.9754 30.0909 25.3446 30.0909ZM22.4291 39.1105C20.8189 37.5003 20.8189 34.889 22.4291 33.2788C23.2346 32.4733 24.2896 32.0709 25.3454 32.0709C26.4012 32.0709 27.4561 32.4733 28.2616 33.2788C29.8718 34.889 29.8718 37.5003 28.2616 39.1105C27.4561 39.916 26.4012 40.3183 25.3454 40.3183C24.2896 40.3183 23.2346 39.916 22.4291 39.1105Z" fill="#F9D16E"/>
<path d="M36.9233 8.32663H14.691V9.38241H36.9233V8.32663Z" fill="white"/>
<path d="M36.9233 11.4948H14.691V12.5505H36.9233V11.4948Z" fill="white"/>
<path d="M36.9233 14.6629H14.691V15.7187H36.9233V14.6629Z" fill="white"/>
<path d="M36.9233 17.831H14.691V18.8868H36.9233V17.831Z" fill="white"/>
<path d="M36.9233 20.9991H14.691V22.0549H36.9233V20.9991Z" fill="white"/>
</g>
<defs>
<clipPath id="clip0_319_4120">
<rect width="50.69" height="50.69" fill="white"/>
</clipPath>
</defs>
</svg>
