<svg width="51" height="51" viewBox="0 0 51 51" fill="none" xmlns="http://www.w3.org/2000/svg">
<g clip-path="url(#clip0_319_4018)">
<path d="M2.11209 23.2329V35.9054V42.2417C2.11209 44.5755 4.00325 46.4658 6.33626 46.4658H46.4658C48.7997 46.4658 50.69 44.5755 50.69 42.2417V35.9054V23.2329H2.11209Z" fill="#FF5959"/>
<path d="M0 4.22417V23.2329V38.0175V44.3537C0 46.6876 1.89122 48.5779 4.22417 48.5779H44.3537C46.6876 48.5779 48.5779 46.6876 48.5779 44.3537V38.0175V23.2329V4.22417H0Z" fill="#FFDE76"/>
<path d="M4.22415 8.44833V19.0087H6.33623V12.6725L10.5604 19.0087H12.6725V8.44833H10.5604V14.7846L6.33623 8.44833H4.22415ZM14.7846 8.44833V19.0087H23.2329V16.8967H16.8967V14.7846H21.1208V12.6725H16.8967V10.5604H23.2329V8.44833H14.7846ZM25.345 8.44833V19.0087H27.4571L29.5691 14.7846L31.6812 19.0087H33.7933V8.44833H31.6812V14.7846L29.5691 10.5604L27.4571 14.7846V8.44833H25.345ZM39.0735 8.44833C37.3247 8.44833 35.9054 9.86681 35.9054 11.6165C35.9054 13.3661 37.3247 14.7846 39.0735 14.7846H41.1856C41.7685 14.7846 42.2416 15.2575 42.2416 15.8406C42.2416 16.4238 41.7685 16.8967 41.1856 16.8967H39.139H35.9054V19.0087H39.139H41.1856C42.9344 19.0087 44.3537 17.5903 44.3537 15.8406C44.3537 14.091 42.9344 12.6725 41.1856 12.6725H40.1296H39.0735C38.4906 12.6725 38.0175 12.1996 38.0175 11.6165C38.0175 11.0333 38.4906 10.5604 39.0735 10.5604H40.1296H41.1856H44.3537V8.44833H41.1856H39.0735Z" fill="#F7963E"/>
<path d="M23.2329 23.2329H4.22415V38.0175H23.2329V23.2329Z" fill="#4F9DA6"/>
<path d="M44.3538 31.6812H25.345V33.7933H44.3538V31.6812Z" fill="#95A5A6"/>
<path d="M23.2329 40.1296H4.22415V42.2417H23.2329V40.1296Z" fill="#95A5A6"/>
<path d="M44.3538 35.9054H25.345V38.0175H44.3538V35.9054Z" fill="#95A5A6"/>
<path d="M44.3538 27.4571H25.345V29.5692H44.3538V27.4571Z" fill="#95A5A6"/>
<path d="M44.3538 23.2329H25.345V25.345H44.3538V23.2329Z" fill="#95A5A6"/>
<path d="M0 42.2417V44.3537C0 46.6876 1.89122 48.5779 4.22417 48.5779H44.3537C46.6876 48.5779 50.69 46.6876 50.69 44.3537V42.2417C50.69 44.5755 46.6876 46.4658 44.3537 46.4658H4.22417C1.89116 46.4658 0 44.5755 0 42.2417Z" fill="#FF5959"/>
<path d="M44.3538 40.1296H25.345V42.2417H44.3538V40.1296Z" fill="#95A5A6"/>
</g>
<defs>
<clipPath id="clip0_319_4018">
<rect width="50.69" height="50.69" fill="white"/>
</clipPath>
</defs>
</svg>
