<svg width="54" height="51" viewBox="0 0 54 51" fill="none" xmlns="http://www.w3.org/2000/svg">
<path d="M7.28152 35.6868C7.05414 35.6868 6.83608 35.5965 6.6753 35.4357C6.51452 35.2749 6.42419 35.0569 6.42419 34.8295V7.50941C6.42469 6.0055 6.87659 4.53636 7.72139 3.29216C8.5662 2.04795 9.76502 1.08597 11.1627 0.530722C12.5603 -0.024524 14.0925 -0.147466 15.5608 0.177809C17.0291 0.503085 18.366 1.2616 19.3984 2.35518C19.4793 2.43636 19.5432 2.53295 19.5862 2.63924C19.6291 2.74553 19.6504 2.85936 19.6486 2.974C19.6468 3.08864 19.622 3.20175 19.5757 3.30665C19.5295 3.41154 19.4626 3.50609 19.3791 3.5847C19.2957 3.66331 19.1973 3.72437 19.0898 3.76429C18.9823 3.8042 18.868 3.82215 18.7534 3.81708C18.6389 3.81201 18.5265 3.78401 18.423 3.73475C18.3195 3.68549 18.2269 3.61596 18.1507 3.53029C17.3537 2.68685 16.3219 2.10197 15.1889 1.85134C14.0558 1.6007 12.8737 1.69584 11.7953 2.12443C10.7169 2.55303 9.79194 3.29536 9.14007 4.25539C8.4882 5.21543 8.13942 6.34898 8.13884 7.50941V34.8295C8.13884 35.0569 8.04852 35.2749 7.88774 35.4357C7.72696 35.5965 7.5089 35.6868 7.28152 35.6868Z" fill="#2D1F5E"/>
<path d="M26.2855 4.67453L17.0322 10.4929C16.65 9.88572 16.3913 9.2092 16.2706 8.502C16.15 7.79479 16.1699 7.07075 16.3291 6.37122C16.4883 5.6717 16.7838 5.01039 17.1986 4.42506C17.6135 3.83974 18.1395 3.34187 18.7468 2.95988C18.7582 2.95417 18.764 2.94845 18.7754 2.94274C20.002 2.18056 21.4805 1.93488 22.8877 2.25938C24.2949 2.58387 25.5165 3.45217 26.2855 4.67453Z" fill="#4F9DA6"/>
<path d="M24.1691 6.00395C24.5801 6.66978 24.7114 7.47103 24.5343 8.2332C24.3573 8.99538 23.8863 9.65673 23.2239 10.0732C22.5615 10.4897 21.7613 10.6276 20.9977 10.4569C20.2341 10.2862 19.5689 9.82069 19.1469 9.16176L24.1691 6.00395Z" fill="#FFAD5A"/>
<path d="M50.9462 38.1736H15.9382C15.1134 38.1736 14.4448 38.8423 14.4448 39.6671V40.1946C14.4448 41.0194 15.1134 41.6881 15.9382 41.6881H50.9462C51.771 41.6881 52.4397 41.0194 52.4397 40.1946V39.6671C52.4397 38.8423 51.771 38.1736 50.9462 38.1736Z" fill="#4F9DA6"/>
<path d="M48.4834 23.6928H18.4004C17.5756 23.6928 16.907 24.3615 16.907 25.1863V33.1234C16.907 33.9482 17.5756 34.6169 18.4004 34.6169H48.4834C49.3082 34.6169 49.9769 33.9482 49.9769 33.1234V25.1863C49.9769 24.3615 49.3082 23.6928 48.4834 23.6928Z" fill="#4F9DA6"/>
<path d="M21.8595 41.6881H18.9909V49.6898H21.8595V41.6881Z" fill="#EDBA54"/>
<path d="M23.0638 34.6169H20.4255V38.1742H23.0638V34.6169Z" fill="#EDBA54"/>
<path d="M46.4584 34.6169H43.8201V38.1742H46.4584V34.6169Z" fill="#EDBA54"/>
<path d="M21.7446 20.6362C22.0942 20.6366 22.4293 20.7758 22.6763 21.0232C22.9233 21.2705 23.062 21.6058 23.062 21.9553V23.6928H20.4255V21.9553C20.4255 21.6055 20.5645 21.2699 20.8118 21.0226C21.0592 20.7752 21.3948 20.6362 21.7446 20.6362Z" fill="#EDBA54"/>
<path d="M45.1398 20.6362C45.4897 20.6362 45.8252 20.7752 46.0726 21.0226C46.32 21.2699 46.459 21.6055 46.459 21.9553V23.6928H43.8201V21.9553C43.8201 21.6055 43.9591 21.2699 44.2065 21.0226C44.4539 20.7752 44.79 20.6362 45.1398 20.6362Z" fill="#EDBA54"/>
<path d="M47.893 41.6881H45.0244V49.6898H47.893V41.6881Z" fill="#EDBA54"/>
<path d="M21.7446 28.0406C22.2604 28.0406 22.6786 27.6225 22.6786 27.1067C22.6786 26.5909 22.2604 26.1728 21.7446 26.1728C21.2289 26.1728 20.8107 26.5909 20.8107 27.1067C20.8107 27.6225 21.2289 28.0406 21.7446 28.0406Z" fill="#2D1F5E"/>
<path d="M21.7446 32.1369C22.2604 32.1369 22.6786 31.7188 22.6786 31.203C22.6786 30.6872 22.2604 30.2691 21.7446 30.2691C21.2289 30.2691 20.8107 30.6872 20.8107 31.203C20.8107 31.7188 21.2289 32.1369 21.7446 32.1369Z" fill="#2D1F5E"/>
<path d="M45.1398 28.0406C45.6556 28.0406 46.0738 27.6225 46.0738 27.1067C46.0738 26.5909 45.6556 26.1728 45.1398 26.1728C44.6241 26.1728 44.2059 26.5909 44.2059 27.1067C44.2059 27.6225 44.6241 28.0406 45.1398 28.0406Z" fill="#2D1F5E"/>
<path d="M45.1398 32.1369C45.6556 32.1369 46.0738 31.7188 46.0738 31.203C46.0738 30.6872 45.6556 30.2691 45.1398 30.2691C44.6241 30.2691 44.2059 30.6872 44.2059 31.203C44.2059 31.7188 44.6241 32.1369 45.1398 32.1369Z" fill="#2D1F5E"/>
<path d="M6.27846 34.8295H8.58637C9.02491 34.8295 9.44548 35.0037 9.75557 35.3138C10.0657 35.6239 10.2399 36.0445 10.2399 36.483V49.6898H4.62439V36.483C4.62439 36.2658 4.66718 36.0507 4.75031 35.8501C4.83344 35.6494 4.95529 35.4671 5.10889 35.3136C5.26249 35.16 5.44484 35.0383 5.64552 34.9552C5.84619 34.8721 6.06127 34.8294 6.27846 34.8295Z" fill="#FF5959"/>
<path d="M52.4397 50.69H1.00021C0.734939 50.69 0.480532 50.5846 0.292956 50.397C0.10538 50.2095 0 49.9551 0 49.6898C0 49.4245 0.10538 49.1701 0.292956 48.9825C0.480532 48.795 0.734939 48.6896 1.00021 48.6896H52.4397C52.705 48.6896 52.9594 48.795 53.1469 48.9825C53.3345 49.1701 53.4399 49.4245 53.4399 49.6898C53.4399 49.9551 53.3345 50.2095 53.1469 50.397C52.9594 50.5846 52.705 50.69 52.4397 50.69Z" fill="#2D1F5E"/>
</svg>
