<svg width="50" height="51" viewBox="0 0 50 51" fill="none" xmlns="http://www.w3.org/2000/svg">
<path fill-rule="evenodd" clip-rule="evenodd" d="M23.4091 37.7588H23.409V45.0002H23.4091V37.7588Z" fill="#FF6600"/>
<path fill-rule="evenodd" clip-rule="evenodd" d="M19.2712 37.7588H19.2711V45.0002H19.2712V37.7588Z" fill="#FF6600"/>
<path fill-rule="evenodd" clip-rule="evenodd" d="M15.1333 37.7588H15.1332V45.0002H15.1333V37.7588Z" fill="#FF6600"/>
<path fill-rule="evenodd" clip-rule="evenodd" d="M10.3371 32.0692H48.8949C49.4662 32.0692 49.9294 32.5324 49.9294 33.1037V49.6555C49.9294 50.2268 49.4662 50.69 48.8949 50.69H10.3371C9.7658 50.69 9.30261 50.2268 9.30261 49.6555V33.1037C9.30261 32.5324 9.7658 32.0692 10.3371 32.0692ZM16.1678 36.7244V46.0347H14.0988V36.7244H16.1678ZM20.3057 36.7244V46.0347H18.2367V36.7244H20.3057ZM24.4436 36.7244V46.0347H22.3746V36.7244H24.4436ZM28.5816 36.7244V46.0347H26.5125V36.7244H28.5816ZM32.7195 36.7244V46.0347H30.6505V36.7244H32.7195ZM36.8574 36.7244V46.0347H34.7884V36.7244H36.8574ZM40.9954 36.7244V46.0347H38.9263V36.7244H40.9954ZM45.1333 36.7244V46.0347H43.0643V36.7244H45.1333Z" fill="#FF5959"/>
<path d="M3.84554 26.8968H10.3449C10.9162 26.8968 11.3794 27.36 11.3794 27.9313V49.6555C11.3794 50.2268 10.9162 50.69 10.3449 50.69H3.84554C3.27422 50.69 2.81104 50.2268 2.81104 49.6555V27.9313C2.81104 27.36 3.27422 26.8968 3.84554 26.8968Z" fill="#2D1F5E"/>
<path d="M9.78351 25.8623H4.40695C3.83563 25.8623 3.37244 25.3991 3.37244 24.8278V11.421C3.37244 10.8497 3.83563 10.3865 4.40695 10.3865H9.78351C10.3548 10.3865 10.818 10.8497 10.818 11.421V24.8278C10.818 25.3991 10.3548 25.8623 9.78351 25.8623Z" fill="#2D1F5E"/>
<path d="M7.94025 0.738781L10.7444 7.9437L10.7476 7.94248C10.9548 8.47489 10.6911 9.07454 10.1587 9.28176C10.0286 9.33239 9.89453 9.35484 9.76315 9.35221H4.40695C3.83563 9.35221 3.37244 8.88902 3.37244 8.3177C3.37244 8.16867 3.40401 8.02701 3.46075 7.89899L5.97513 0.695331L6.94901 1.03477L5.9723 0.693842C6.16058 0.154443 6.75053 -0.130209 7.28994 0.0580671C7.61559 0.171735 7.84834 0.431834 7.94025 0.738781Z" fill="#2D1F5E"/>
<path d="M12.1215 28.9657H2.09074C1.64939 28.9752 1.23447 28.6991 1.08758 28.2584L2.06898 27.9312L1.09106 28.2545L0.0886972 25.2474C0.031691 25.1191 0 24.9771 0 24.8278C0 24.2565 0.46319 23.7933 1.03451 23.7933H13.1373C13.2517 23.7912 13.3684 23.8082 13.4831 23.8464C14.0251 24.027 14.318 24.6129 14.1373 25.1549L14.133 25.1535L13.1298 28.1631C13.0246 28.6228 12.613 28.9657 12.1215 28.9657Z" fill="#4F9DA6"/>
<path d="M11.3632 12.4557H2.84505C2.3869 12.4638 1.96258 12.1646 1.83192 11.7029L2.8273 11.4212L1.83322 11.7L0.974161 8.66489C0.935482 8.55634 0.914368 8.4395 0.914368 8.3177C0.914368 7.74638 1.37756 7.28319 1.94888 7.28319H12.2233C12.3223 7.28147 12.4232 7.29396 12.5234 7.32233C13.0731 7.47792 13.3926 8.04974 13.237 8.59945L13.2351 8.59887L12.3751 11.6371C12.2758 12.1048 11.8605 12.4557 11.3632 12.4557Z" fill="#4F9DA6"/>
<path d="M15.6543 31.0347V28.4485C15.6543 27.8771 16.1175 27.414 16.6888 27.414H46.6966C47.2679 27.414 47.7311 27.8771 47.7311 28.4485V31.0347H15.6543Z" fill="#FFAD5A"/>
<path d="M32.6292 12.5007C32.4591 12.131 32.0967 11.9039 31.6929 11.9006L31.6788 11.9007C31.2828 11.9057 30.9216 12.1401 30.7565 12.5007C29.4265 15.2937 27.0821 16.3597 24.4024 17.5279C20.2122 19.3545 16.4811 20.9811 18.4106 28.6991C18.549 29.2526 19.1099 29.5891 19.6633 29.4507C20.2168 29.3124 20.5533 28.7515 20.415 28.198C20.36 27.9782 20.3118 27.7654 20.2685 27.558H43.1172C43.074 27.7654 43.0257 27.9782 42.9708 28.198C42.8324 28.7515 43.169 29.3124 43.7224 29.4507C44.2759 29.5891 44.8368 29.2526 44.9751 28.6991C46.9046 20.9812 43.1735 19.3546 38.9833 17.5279C36.3333 16.3726 33.941 15.2701 32.6292 12.5007Z" fill="#FFDE76"/>
</svg>
