<svg width="46" height="51" viewBox="0 0 46 51" fill="none" xmlns="http://www.w3.org/2000/svg">
<path d="M28.0304 4.37302H31.6241L30.1866 5.68387L31.6241 6.99473H26.593V4.37302H28.0304Z" fill="#DA4453"/>
<path d="M31.6391 7.8669C31.6356 7.8669 31.6298 7.8669 31.6248 7.8669H26.5937C26.1962 7.8669 25.8749 7.47627 25.8749 6.993V4.37128C25.8749 3.88801 26.1962 3.49738 26.5937 3.49738H31.6248C31.9345 3.49738 32.2091 3.7377 32.3068 4.09513C32.4046 4.45255 32.3033 4.84494 32.0553 5.07041L31.384 5.68214L31.9748 6.22046C32.2019 6.36728 32.3564 6.65829 32.3564 6.993C32.3579 7.47627 32.0366 7.8669 31.6391 7.8669ZM27.3131 6.11909H29.5642C29.5016 5.98801 29.4679 5.83769 29.4679 5.68214C29.4679 5.52658 29.5016 5.37627 29.5642 5.24519H27.3131V6.11909Z" fill="#E84949"/>
<path d="M28.0304 1.7513V4.37301H26.593H22.9993V1.7513H28.0304Z" fill="#ED5565"/>
<path d="M28.0319 5.24343H23.0008C22.6033 5.24343 22.282 4.85279 22.282 4.36952V1.74781C22.282 1.26454 22.6033 0.873901 23.0008 0.873901H28.0319C28.4293 0.873901 28.7506 1.26454 28.7506 1.74781V4.36952C28.7506 4.85279 28.4293 5.24343 28.0319 5.24343ZM23.7195 3.49562H27.3131V2.62171H23.7195V3.49562Z" fill="#FF5959"/>
<path d="M23.0008 10.4869C22.6033 10.4869 22.282 10.0962 22.282 9.61296V0.873905C22.282 0.390636 22.6033 0 23.0008 0C23.3982 0 23.7195 0.390636 23.7195 0.873905V9.61296C23.7195 10.0962 23.3982 10.4869 23.0008 10.4869Z" fill="#656D78"/>
<path d="M2.1562 50.69C1.75874 50.69 1.43747 50.2994 1.43747 49.8161V22.1413C1.43747 21.658 1.75874 21.2674 2.1562 21.2674C2.55366 21.2674 2.87493 21.658 2.87493 22.1413V49.8161C2.87493 50.2994 2.55366 50.69 2.1562 50.69Z" fill="#E6E9ED"/>
<path d="M43.8425 49.8161C43.445 49.8161 43.1237 49.4255 43.1237 48.9422V21.8546C43.1237 21.3713 43.445 20.9807 43.8425 20.9807C44.2399 20.9807 44.5612 21.3713 44.5612 21.8546V48.9422C44.5612 49.4255 44.2399 49.8161 43.8425 49.8161Z" fill="#E6E9ED"/>
<path d="M0.718713 22.7215C0.643965 22.7215 0.567061 22.7067 0.491594 22.6761C0.115699 22.524 -0.08842 22.0294 0.0373576 21.5706L2.19354 13.7055C2.31932 13.2484 2.72325 12.9993 3.10274 13.1532C3.47863 13.3052 3.68275 13.7998 3.55697 14.2586L1.40079 22.1238C1.30016 22.49 1.01986 22.7215 0.718713 22.7215Z" fill="#DA4453"/>
<path d="M45.2799 22.7215C44.9788 22.7215 44.6985 22.4899 44.5986 22.1238L42.4424 14.2586C42.3166 13.8007 42.52 13.3052 42.8966 13.1531C43.2768 12.9993 43.68 13.2475 43.8058 13.7055L45.962 21.5706C46.0878 22.0285 45.8844 22.524 45.5078 22.6761C45.4316 22.7067 45.3547 22.7215 45.2799 22.7215Z" fill="#DA4453"/>
<path d="M19.6637 14.8564H2.87492C2.47746 14.8564 2.15619 14.4658 2.15619 13.9825C2.15619 13.4992 2.47746 13.1086 2.87492 13.1086H19.6637C20.0612 13.1086 20.3824 13.4992 20.3824 13.9825C20.3824 14.4658 20.0612 14.8564 19.6637 14.8564Z" fill="#DA4453"/>
<path d="M43.1238 14.8564H26.3378C25.9404 14.8564 25.6191 14.4658 25.6191 13.9825C25.6191 13.4992 25.9404 13.1086 26.3378 13.1086H43.1238C43.5212 13.1086 43.8425 13.4992 43.8425 13.9825C43.8425 14.4658 43.5212 14.8564 43.1238 14.8564Z" fill="#DA4453"/>
<path d="M40.9884 41.0858V37.5902H36.676V41.0858V44.5814H40.9884V41.0858ZM40.9884 30.5902V27.0946H36.676V30.5902V34.0858H40.9884V30.5902ZM43.8425 49.8161H27.3117V39.331L22.9993 37.5814L18.687 39.331V49.8161H2.15619V22.1395V21.8511H13.6559H17.5808V21.8424L22.9993 14.7463L28.4193 21.8424H32.3356H43.8425V21.8511V48.9422V49.8161ZM22.9993 30.5902C24.983 30.5902 26.593 28.6326 26.593 26.2207C26.593 23.8087 24.983 21.8511 22.9993 21.8511C21.0156 21.8511 19.4057 23.8087 19.4057 26.2207C19.4057 28.6326 21.0156 30.5902 22.9993 30.5902ZM9.34348 41.0858V37.5902H5.03111V41.0858V44.5814H9.34348V41.0858ZM9.34348 30.5902V27.0946H5.03111V30.5902V34.0858H9.34348V30.5902ZM11.4997 41.0858V44.5814H15.812V41.0858V37.5902H11.4997V41.0858ZM11.4997 30.5902V34.0858H15.812V30.5902V27.0946H11.4997V30.5902ZM34.5198 44.5814V41.0858V37.5902H30.2075V41.0858V44.5814H34.5198ZM34.5198 34.0858V30.5902V27.0946H30.2075V30.5902V34.0858H34.5198Z" fill="#E6E9ED"/>
<path d="M40.9884 41.0858H36.676V44.5814H40.9884V41.0858Z" fill="#5D9CEC"/>
<path d="M40.9884 37.5902H36.676V41.0858H40.9884V37.5902Z" fill="#5D9CEC"/>
<path d="M40.9884 30.5902H36.676V34.0858H40.9884V30.5902Z" fill="#5D9CEC"/>
<path d="M40.9884 27.0946H36.676V30.5902H40.9884V27.0946Z" fill="#5D9CEC"/>
<path d="M34.5198 41.0858H30.2075V44.5814H34.5198V41.0858Z" fill="#5D9CEC"/>
<path d="M34.5198 37.5902H30.2075V41.0858H34.5198V37.5902Z" fill="#5D9CEC"/>
<path d="M34.5198 30.5902H30.2075V34.0858H34.5198V30.5902Z" fill="#5D9CEC"/>
<path d="M34.5198 27.0946H30.2075V30.5902H34.5198V27.0946Z" fill="#5D9CEC"/>
<path d="M26.335 13.986H43.1238L45.2799 21.8424H43.8425H32.3356L26.335 13.986Z" fill="#E84949"/>
<path d="M26.335 13.986L32.3356 21.8424H28.4193L22.9993 14.7463L17.5808 21.8424V21.8511H13.6559L19.6644 13.986L22.9993 9.61646L26.335 13.986Z" fill="#FF5959"/>
<path d="M22.9993 30.5902C24.9841 30.5902 26.593 28.6339 26.593 26.2206C26.593 23.8074 24.9841 21.8511 22.9993 21.8511C21.0146 21.8511 19.4057 23.8074 19.4057 26.2206C19.4057 28.6339 21.0146 30.5902 22.9993 30.5902Z" fill="white"/>
<path d="M23.7181 37.5814C23.3228 37.5814 22.6759 37.5814 22.2806 37.5814H19.4057C19.0104 37.5814 18.687 37.9747 18.687 38.4553V48.9422C18.687 49.4228 19.0104 49.8161 19.4057 49.8161H22.2806C22.6759 49.8161 23.3228 49.8161 23.7181 49.8161H26.593C26.9883 49.8161 27.3117 49.4228 27.3117 48.9422V38.4553C27.3117 37.9747 26.9883 37.5814 26.593 37.5814H23.7181Z" fill="#FF5959"/>
<path d="M15.812 41.0858H11.4997V44.5814H15.812V41.0858Z" fill="#5D9CEC"/>
<path d="M15.812 37.5902H11.4997V41.0858H15.812V37.5902Z" fill="#5D9CEC"/>
<path d="M15.812 30.5902H11.4997V34.0858H15.812V30.5902Z" fill="#5D9CEC"/>
<path d="M15.812 27.0946H11.4997V30.5902H15.812V27.0946Z" fill="#5D9CEC"/>
<path d="M9.34347 41.0858H5.0311V44.5814H9.34347V41.0858Z" fill="#5D9CEC"/>
<path d="M9.34347 37.5902H5.0311V41.0858H9.34347V37.5902Z" fill="#5D9CEC"/>
<path d="M9.34347 30.5902H5.0311V34.0858H9.34347V30.5902Z" fill="#5D9CEC"/>
<path d="M9.34347 27.0946H5.0311V30.5902H9.34347V27.0946Z" fill="#5D9CEC"/>
<path d="M13.6558 21.8511H2.15618H0.718719L2.87491 13.986H19.6644L13.6558 21.8511Z" fill="#E84949"/>
<path d="M17.5808 22.7215H0.718729C0.321272 22.7215 0 22.3309 0 21.8476C0 21.3644 0.321272 20.9737 0.718729 20.9737H17.5808C17.9783 20.9737 18.2996 21.3644 18.2996 21.8476C18.2996 22.3309 17.9783 22.7215 17.5808 22.7215Z" fill="#FF5959"/>
<path d="M13.6573 22.7215C13.4819 22.7215 13.3066 22.6438 13.1679 22.4873C12.8775 22.1596 12.8602 21.6064 13.1305 21.2525L22.474 9.01782C22.7428 8.66476 23.1992 8.64379 23.4895 8.97238C23.7799 9.30009 23.7971 9.85328 23.5269 10.2072L14.1834 22.4419C14.0426 22.628 13.8507 22.7215 13.6573 22.7215Z" fill="#FF5959"/>
<path d="M32.3442 22.7215C32.1509 22.7215 31.959 22.628 31.8181 22.4428L22.4746 10.2081C22.2044 9.85417 22.2209 9.30098 22.512 8.97327C22.8017 8.64468 23.2581 8.66478 23.5276 9.01871L32.8711 21.2534C33.1413 21.6073 33.1248 22.1605 32.8337 22.4882C32.695 22.6438 32.5196 22.7215 32.3442 22.7215Z" fill="#FF5959"/>
<path d="M40.9675 16.6033H31.9331C31.5357 16.6033 31.2144 16.2127 31.2144 15.7294C31.2144 15.2462 31.5357 14.8555 31.9331 14.8555H40.9675C41.365 14.8555 41.6863 15.2462 41.6863 15.7294C41.6863 16.2127 41.365 16.6033 40.9675 16.6033Z" fill="#D3374E"/>
<path d="M41.6863 19.225H33.9362C33.5388 19.225 33.2175 18.8344 33.2175 18.3511C33.2175 17.8679 33.5388 17.4772 33.9362 17.4772H41.6863C42.0837 17.4772 42.405 17.8679 42.405 18.3511C42.405 18.8344 42.0837 19.225 41.6863 19.225Z" fill="#D3374E"/>
<path d="M14.0684 16.6033H5.03111C4.63365 16.6033 4.31238 16.2127 4.31238 15.7294C4.31238 15.2462 4.63365 14.8555 5.03111 14.8555H14.0684C14.4659 14.8555 14.7871 15.2462 14.7871 15.7294C14.7871 16.2127 14.4659 16.6033 14.0684 16.6033Z" fill="#D3374E"/>
<path d="M12.0653 19.225H4.31239C3.91493 19.225 3.59366 18.8344 3.59366 18.3511C3.59366 17.8679 3.91493 17.4772 4.31239 17.4772H12.0653C12.4628 17.4772 12.784 17.8679 12.784 18.3511C12.784 18.8344 12.4628 19.225 12.0653 19.225Z" fill="#D3374E"/>
<path d="M17.532 22.725H13.6573C13.2598 22.725 12.9386 22.3344 12.9386 21.8511C12.9386 21.3679 13.2598 20.9772 13.6573 20.9772H17.532C17.9294 20.9772 18.2507 21.3679 18.2507 21.8511C18.2507 22.3344 17.9287 22.725 17.532 22.725Z" fill="#FF5959"/>
<path d="M32.2954 22.725H28.4207C28.0232 22.725 27.702 22.3344 27.702 21.8511C27.702 21.3679 28.0232 20.9772 28.4207 20.9772H32.2954C32.6928 20.9772 33.0141 21.3679 33.0141 21.8511C33.0141 22.3344 32.6921 22.725 32.2954 22.725Z" fill="#ED5565"/>
<path d="M17.5808 22.7198C17.4055 22.7198 17.2301 22.642 17.0914 22.4856C16.801 22.157 16.7838 21.6047 17.054 21.2508L22.4739 14.1555C22.7427 13.8016 23.1991 13.7815 23.4895 14.1101C23.7799 14.4387 23.7971 14.991 23.5269 15.3449L18.1069 22.4401C17.9661 22.6263 17.7735 22.7198 17.5808 22.7198Z" fill="#FF5959"/>
<path d="M28.4207 22.7198C28.2274 22.7198 28.0355 22.6263 27.8946 22.441L22.4746 15.3458C22.2044 14.9918 22.2209 14.4395 22.512 14.1109C22.8017 13.7824 23.2581 13.8016 23.5276 14.1564L28.9475 21.2516C29.2178 21.6056 29.2012 22.1579 28.9101 22.4864C28.7714 22.642 28.5961 22.7198 28.4207 22.7198Z" fill="#FF5959"/>
<path d="M45.2799 22.7198H28.4207C28.0232 22.7198 27.702 22.3292 27.702 21.8459C27.702 21.3626 28.0232 20.972 28.4207 20.972H45.2799C45.6774 20.972 45.9987 21.3626 45.9987 21.8459C45.9987 22.3292 45.6774 22.7198 45.2799 22.7198Z" fill="#FF5959"/>
<path d="M22.9993 31.4641C20.6211 31.4641 18.687 29.1124 18.687 26.2206C18.687 23.3289 20.6211 20.9772 22.9993 20.9772C25.3776 20.9772 27.3117 23.3289 27.3117 26.2206C27.3117 29.1124 25.3776 31.4641 22.9993 31.4641ZM22.9993 22.725C21.4138 22.725 20.1244 24.2928 20.1244 26.2206C20.1244 28.1485 21.4138 29.7163 22.9993 29.7163C24.5848 29.7163 25.8742 28.1485 25.8742 26.2206C25.8742 24.2928 24.5848 22.725 22.9993 22.725Z" fill="#656D78"/>
<path d="M23.0008 27.0946C22.6033 27.0946 22.282 26.7039 22.282 26.2207V24.4728C22.282 23.9896 22.6033 23.5989 23.0008 23.5989C23.3982 23.5989 23.7195 23.9896 23.7195 24.4728V26.2207C23.7195 26.7039 23.3982 27.0946 23.0008 27.0946Z" fill="#656D78"/>
<path d="M24.0127 28.332C23.8287 28.332 23.644 28.2464 23.5039 28.076L22.489 26.8402C22.2087 26.4977 22.2087 25.9454 22.4898 25.6037C22.7708 25.2637 23.2257 25.2629 23.5068 25.6045L24.5216 26.8402C24.8019 27.1828 24.8019 27.7351 24.5209 28.0768C24.3807 28.2464 24.1967 28.332 24.0127 28.332Z" fill="#656D78"/>
<path d="M25.8743 34.9597H20.1259C19.7284 34.9597 19.4071 34.5691 19.4071 34.0858C19.4071 33.6025 19.7284 33.2119 20.1259 33.2119H25.8743C26.2717 33.2119 26.593 33.6025 26.593 34.0858C26.593 34.5691 26.2717 34.9597 25.8743 34.9597Z" fill="#CCD1D9"/>
<path d="M23.7181 37.5814C23.3235 37.5814 22.6773 37.5814 22.282 37.5814V49.8161C22.6773 49.8161 23.3235 49.8161 23.7181 49.8161H23.7195V37.5814H23.7181Z" fill="#DA4453"/>
<path d="M45.2799 50.69H0.720163C0.322706 50.69 0.00143433 50.2994 0.00143433 49.8161C0.00143433 49.3328 0.322706 48.9422 0.720163 48.9422H45.2799C45.6774 48.9422 45.9987 49.3328 45.9987 49.8161C45.9987 50.2994 45.6774 50.69 45.2799 50.69Z" fill="#2D1F5E"/>
<path d="M9.34349 34.521H5.03112C4.83203 34.521 4.67175 34.3252 4.67175 34.084V27.0963C4.67175 26.8551 4.83203 26.6593 5.03112 26.6593H9.34349C9.54186 26.6593 9.70286 26.8551 9.70286 27.0963V34.084C9.70286 34.3252 9.54186 34.521 9.34349 34.521ZM5.39048 33.6471H8.98413V27.5333H5.39048V33.6471Z" fill="white"/>
<path d="M15.812 34.521H11.4997C11.3013 34.521 11.1403 34.3252 11.1403 34.084V27.0963C11.1403 26.8551 11.3013 26.6593 11.4997 26.6593H15.812C16.0104 26.6593 16.1714 26.8551 16.1714 27.0963V34.084C16.1714 34.3252 16.0104 34.521 15.812 34.521ZM11.859 33.6471H15.4527V27.5333H11.859V33.6471Z" fill="white"/>
<path d="M9.34346 45.0183H5.03109C4.832 45.0183 4.67172 44.8226 4.67172 44.5814V37.5936C4.67172 37.3524 4.832 37.1567 5.03109 37.1567H9.34346C9.54183 37.1567 9.70283 37.3524 9.70283 37.5936V44.5814C9.70283 44.8226 9.54183 45.0183 9.34346 45.0183ZM5.39045 44.1444H8.9841V38.0306H5.39045V44.1444Z" fill="white"/>
<path d="M15.812 45.0183H11.4997C11.3013 45.0183 11.1403 44.8226 11.1403 44.5814V37.5936C11.1403 37.3524 11.3013 37.1567 11.4997 37.1567H15.812C16.0104 37.1567 16.1714 37.3524 16.1714 37.5936V44.5814C16.1714 44.8226 16.0104 45.0183 15.812 45.0183ZM11.859 44.1444H15.4527V38.0306H11.859V44.1444Z" fill="white"/>
<path d="M9.3449 31.0271H5.03252C4.83343 31.0271 4.67316 30.8314 4.67316 30.5902C4.67316 30.349 4.83343 30.1532 5.03252 30.1532H9.3449C9.54326 30.1532 9.70426 30.349 9.70426 30.5902C9.70426 30.8314 9.54326 31.0271 9.3449 31.0271Z" fill="white"/>
<path d="M15.8149 31.0271H11.4982C11.2998 31.0271 11.1388 30.8314 11.1388 30.5902C11.1388 30.349 11.2998 30.1532 11.4982 30.1532H15.8149C16.0132 30.1532 16.1742 30.349 16.1742 30.5902C16.1742 30.8314 16.0132 31.0271 15.8149 31.0271Z" fill="white"/>
<path d="M9.3449 41.5245H5.03252C4.83343 41.5245 4.67316 41.3287 4.67316 41.0875C4.67316 40.8463 4.83343 40.6506 5.03252 40.6506H9.3449C9.54326 40.6506 9.70426 40.8463 9.70426 41.0875C9.70426 41.3287 9.54326 41.5245 9.3449 41.5245Z" fill="white"/>
<path d="M15.8149 41.5245H11.4982C11.2998 41.5245 11.1388 41.3287 11.1388 41.0875C11.1388 40.8463 11.2998 40.6506 11.4982 40.6506H15.8149C16.0132 40.6506 16.1742 40.8463 16.1742 41.0875C16.1742 41.3287 16.0132 41.5245 15.8149 41.5245Z" fill="white"/>
<path d="M34.499 34.521H30.1866C29.9875 34.521 29.8273 34.3252 29.8273 34.084V27.0963C29.8273 26.8551 29.9875 26.6593 30.1866 26.6593H34.499C34.6974 26.6593 34.8584 26.8551 34.8584 27.0963V34.084C34.8584 34.3252 34.6974 34.521 34.499 34.521ZM30.546 33.6471H34.1396V27.5333H30.546V33.6471Z" fill="white"/>
<path d="M40.9675 34.521H36.6552C36.4568 34.521 36.2958 34.3252 36.2958 34.084V27.0963C36.2958 26.8551 36.4568 26.6593 36.6552 26.6593H40.9675C41.1659 26.6593 41.3269 26.8551 41.3269 27.0963V34.084C41.3269 34.3252 41.1659 34.521 40.9675 34.521ZM37.0145 33.6471H40.6082V27.5333H37.0145V33.6471Z" fill="white"/>
<path d="M34.499 45.0183H30.1866C29.9875 45.0183 29.8272 44.8226 29.8272 44.5814V37.5936C29.8272 37.3524 29.9875 37.1567 30.1866 37.1567H34.499C34.6973 37.1567 34.8583 37.3524 34.8583 37.5936V44.5814C34.8583 44.8226 34.6973 45.0183 34.499 45.0183ZM30.546 44.1444H34.1396V38.0306H30.546V44.1444Z" fill="white"/>
<path d="M40.9675 45.0183H36.6552C36.4568 45.0183 36.2958 44.8226 36.2958 44.5814V37.5936C36.2958 37.3524 36.4568 37.1567 36.6552 37.1567H40.9675C41.1659 37.1567 41.3269 37.3524 41.3269 37.5936V44.5814C41.3269 44.8226 41.1659 45.0183 40.9675 45.0183ZM37.0145 44.1444H40.6082V38.0306H37.0145V44.1444Z" fill="white"/>
<path d="M34.5004 31.0271H30.1881C29.989 31.0271 29.8287 30.8314 29.8287 30.5902C29.8287 30.349 29.989 30.1532 30.1881 30.1532H34.5004C34.6988 30.1532 34.8598 30.349 34.8598 30.5902C34.8598 30.8314 34.6988 31.0271 34.5004 31.0271Z" fill="white"/>
<path d="M40.9704 31.0271H36.6537C36.4553 31.0271 36.2943 30.8314 36.2943 30.5902C36.2943 30.349 36.4553 30.1532 36.6537 30.1532H40.9704C41.1688 30.1532 41.3298 30.349 41.3298 30.5902C41.3298 30.8314 41.1688 31.0271 40.9704 31.0271Z" fill="white"/>
<path d="M34.5004 41.5245H30.1881C29.989 41.5245 29.8287 41.3287 29.8287 41.0875C29.8287 40.8463 29.989 40.6506 30.1881 40.6506H34.5004C34.6988 40.6506 34.8598 40.8463 34.8598 41.0875C34.8598 41.3287 34.6988 41.5245 34.5004 41.5245Z" fill="white"/>
<path d="M40.9704 41.5245H36.6537C36.4553 41.5245 36.2943 41.3287 36.2943 41.0875C36.2943 40.8463 36.4553 40.6506 36.6537 40.6506H40.9704C41.1688 40.6506 41.3298 40.8463 41.3298 41.0875C41.3298 41.3287 41.1688 41.5245 40.9704 41.5245Z" fill="white"/>
</svg>
