<svg width="59" height="51" viewBox="0 0 59 51" fill="none" xmlns="http://www.w3.org/2000/svg">
<path d="M36.0245 48.9544L20.5665 7.77765L18.714 8.38438L34.1719 49.5611L36.0245 48.9544Z" fill="#2D1F5E"/>
<path d="M20.5681 7.77757L18.7155 8.38448L21.8165 16.6441L21.8779 16.6212C22.4948 16.3915 23.1103 16.241 23.7113 16.15L20.5681 7.77757Z" fill="#1B2736"/>
<path d="M44.7771 49.8917C44.5358 49.7485 38.8261 46.3852 35.1793 46.3852C31.5343 46.3852 25.7241 49.747 25.4784 49.8901C25.3386 49.9718 25.2733 50.1301 25.3188 50.2782C25.3642 50.4262 25.5092 50.5284 25.6741 50.5284H44.579C44.7435 50.5284 44.888 50.427 44.9339 50.2796C44.9798 50.132 44.9159 49.9741 44.7771 49.8917Z" fill="#FFD161"/>
<path d="M8.474 50.69C8.17199 50.69 7.86635 50.6157 7.58911 50.4594C6.77715 50.002 6.51591 49.0165 7.00562 48.2581L12.4518 39.8237C12.9415 39.0653 13.9968 38.8215 14.8084 39.2787C15.6204 39.7361 15.8816 40.7216 15.3919 41.48L9.94571 49.9144C9.62331 50.4136 9.05583 50.69 8.474 50.69Z" fill="#8A532D"/>
<path d="M10.1586 43.3753H14.1682L15.3919 41.48C15.6572 41.0693 15.7004 40.5923 15.5568 40.1682H12.2295L10.1586 43.3753Z" fill="#6E4224"/>
<path d="M47.9033 50.69C47.3214 50.69 46.7539 50.4137 46.4317 49.9144L40.9854 41.48C40.4956 40.7216 40.7569 39.7363 41.5688 39.2787C42.3803 38.8218 43.4357 39.0653 43.9254 39.8237L49.3716 48.2581C49.8614 49.0165 49.6001 50.0018 48.7882 50.4594C48.5109 50.6155 48.2051 50.69 47.9033 50.69Z" fill="#8A532D"/>
<path d="M43.9253 39.8237C43.7423 39.5402 43.4801 39.3288 43.1814 39.1989L42.3447 40.1682H40.8205C40.6769 40.5922 40.72 41.0692 40.9854 41.48L42.2091 43.3753H43.1657C43.6849 43.3753 44.1761 43.1558 44.5021 42.7782L45.2637 41.8963L43.9253 39.8237Z" fill="#6E4224"/>
<path d="M43.1657 42.2067H10.1331C9.18494 42.2067 8.41632 41.5408 8.41632 40.6552C8.41632 39.7696 9.18494 39.1037 10.1331 39.1037H42.3447L55.445 23.9091C56.0401 23.2198 57.121 23.1011 57.859 23.657C58.5971 24.2129 58.7129 25.2172 58.1178 25.9065L44.5021 41.6436C44.1761 42.0212 43.6849 42.2067 43.1657 42.2067Z" fill="#8A532D"/>
<path d="M41.4498 37.533V36.281C41.4498 35.3948 40.6806 34.6763 39.7318 34.6763H11.3775C10.4288 34.6763 9.65955 35.3948 9.65955 36.281V37.533C9.65955 37.6017 9.66574 37.6688 9.67465 37.7353H41.4347C41.4438 37.6688 41.4498 37.6017 41.4498 37.533Z" fill="#E3E3E3"/>
<path d="M9.67465 37.7353C9.78126 38.5258 10.5022 39.1377 11.3776 39.1377H39.7319C40.6072 39.1377 41.3281 38.5258 41.4348 37.7353H9.67465Z" fill="#A6A6A6"/>
<path d="M53.9464 21.2695C53.2108 20.7097 52.1285 20.813 51.5294 21.5L41.1256 33.4273C40.5263 34.1144 40.6368 35.1252 41.3724 35.6849L42.4116 36.4757C42.4327 36.4918 42.4549 36.5054 42.4767 36.5203L54.9214 22.0116L53.9464 21.2695Z" fill="#E3E3E3"/>
<path d="M54.9857 22.0605L54.9214 22.0116L42.4768 36.5206C43.21 37.0275 44.2468 36.9128 44.8289 36.2456L55.2326 24.3182C55.8318 23.631 55.7213 22.6202 54.9857 22.0605Z" fill="#A6A6A6"/>
<path d="M16.4855 1.59753C9.98149 4.02055 5.06684 8.79761 2.27292 15.4118C0.178011 20.3712 0.00661921 24.57 0.00057896 24.7462C-0.0172398 25.2467 0.378246 25.677 0.910845 25.7361C0.952221 25.7408 0.993294 25.7431 1.03391 25.7431C1.51744 25.7431 1.94448 25.4261 2.0443 24.9737C2.07858 24.8257 2.95728 21.2331 7.35504 19.5943C11.6281 18.0029 14.3743 20.1525 14.4892 20.2448C14.7013 20.4155 14.9748 20.4949 15.2454 20.4746C11.4878 7.63526 16.4855 1.59753 16.4855 1.59753Z" fill="#FF5959"/>
<path d="M45.3922 7.83398C45.2576 7.70986 42.0401 4.775 36.8807 2.51898C29.998 -0.491067 22.9458 -0.810111 16.4855 1.59753C24.464 1.42136 29.0602 9.07222 31.2954 14.4267C31.4417 14.2762 31.5417 14.0875 31.5642 13.8843C31.5798 13.7439 31.9923 10.4248 36.264 8.83343C40.6625 7.19463 43.9422 9.23075 44.0795 9.31806C44.3635 9.49888 44.7274 9.53795 45.0471 9.41792C45.3706 9.29704 45.609 9.03131 45.6776 8.71227C45.7466 8.39309 45.6403 8.06234 45.3922 7.83398Z" fill="#FF5959"/>
<path d="M16.4855 1.59753C16.4855 1.59753 11.4876 7.63525 15.2454 20.4745C15.3458 20.467 15.446 20.4467 15.5423 20.4108C15.8203 20.3084 16.0628 20.089 16.1623 19.8258C16.2249 19.6609 17.7398 15.7652 21.7672 14.2647L21.8779 14.2235C25.9035 12.7237 29.8752 14.575 30.0421 14.6546C30.306 14.7803 30.6147 14.7944 30.8904 14.6923C31.0458 14.635 31.1838 14.5417 31.2954 14.4267C29.0604 9.07222 24.4642 1.42137 16.4855 1.59753Z" fill="#F9D16E"/>
</svg>
